<svg width="36.000001" height="36.000001" xmlns="http://www.w3.org/2000/svg">

    <g>
        <title>background</title>
        <rect fill="none" id="canvas_background" height="402" width="582" y="-1" x="-1"/>
    </g>
    <g>
        <title>Layer 1</title>
        <path id="svg_6" fill="#0072bd" fill-rule="evenodd"
              d="m12.165,15.081c0.324,2.971 2.827,5.295 5.85,5.295c3.052,0 5.572,-2.367 5.859,-5.377l-0.024,0c-0.088,0.756 -0.728,1.346 -1.498,1.346c-0.684,0 -1.263,-0.464 -1.447,-1.095c-0.185,0.631 -0.764,1.095 -1.447,1.095c-0.683,0 -1.263,-0.464 -1.447,-1.095c-0.185,0.631 -0.764,1.095 -1.448,1.095c-0.694,0 -1.282,-0.479 -1.456,-1.126c-0.174,0.647 -0.761,1.126 -1.456,1.126c-0.743,0 -1.363,-0.548 -1.486,-1.264z"/>
        <path id="svg_7" fill="#0072bd" fill-rule="evenodd"
              d="m18.596,14.46l5.265,0c0,-3.276 -2.634,-5.949 -5.862,-5.949c-3.229,0 -5.862,2.673 -5.862,5.949l5.578,0c-0.659,-0.193 -1.143,-0.811 -1.143,-1.537c0,-0.882 0.711,-1.602 1.584,-1.602c0.872,0 1.584,0.72 1.584,1.602c0,0.726 -0.484,1.343 -1.144,1.537z"/>
        <rect id="svg_8" fill="#00cc33" fill-rule="evenodd" y="25.484001" x="17.403" height="0.399" width="0.511"/>
        <path id="svg_10" fill="#0072bd" fill-rule="evenodd"
              d="m28.29,16.94c0.045,0.003 -0.067,-0.004 -0.002,0.021c-0.076,2.131 -1.375,4.325 -2.725,5.729c-0.324,0.394 -0.668,0.743 -0.938,1.037c-0.005,0.062 -0.016247,-0.019247 0.022,0.001c-3.525189,2.211196 -6.289,2.55 -6.309,2.507l-0.007,0.953c-0.248,0.005 -0.475,0.011 -0.654,-0.001c-0.133,-0.03 -0.008,-0.768 -0.088,-0.897c-3.34441,-0.734467 -2.924494,-0.625285 -6.17,-2.77c-1.903,-1.929 -3.024,-4.033 -3.568,-6.619l0.027,-0.061c2.631,0.401 4.941,1.444 6.61,3.192c1.379,1.417 2.454,3.54 3.029,5.423c0.045,-0.577 0.009,-3.586 0.001,-4.353c0.247,0.017 0.634,-0.021 0.789,0.011l0.02,4.375c0.064,0.046 -0.073,0.078 -0.003,0.042c0.316,-0.581 0.764,-1.981 1.191,-2.555c0.976,-2.092 2.894,-3.831 5.077,-4.932c1.012,-0.512 2.44,-0.895 3.698,-1.103z"/>
    </g>
</svg>
