<svg xmlns="http://www.w3.org/2000/svg" version="1.1" xmlns:xlink="http://www.w3.org/1999/xlink" xmlns:svgjs="http://svgjs.dev/svgjs" width="1000" height="750" viewBox="0 0 1000 750"><rect width="1000" height="750" fill="#444444"></rect><g transform="matrix(0.834,0,0,0.834,82.49454545454546,257.29151423383456)"><svg viewBox="0 0 396 112" data-background-color="#444444" preserveAspectRatio="xMidYMid meet" height="282" width="1000" xmlns="http://www.w3.org/2000/svg" xmlns:xlink="http://www.w3.org/1999/xlink"><g id="tight-bounds" transform="matrix(1,0,0,1,0.2400000000000091,0.05451981313046872)"><svg viewBox="0 0 395.52 111.89096037373903" height="111.89096037373903" width="395.52"><g><svg viewBox="0 0 622.7009307033372 176.15949929717215" height="111.89096037373903" width="395.52"><g><rect width="8.16767935400742" height="152.96049143025078" x="416.9013595654644" y="11.599503933460682" fill="#ffffff" opacity="1" stroke-width="0" stroke="transparent" fill-opacity="1" class="rect-o-0" data-fill-palette-color="primary" rx="1%" id="o-0" data-palette-color="#ffffff"></rect></g><g transform="matrix(1,0,0,1,0,24.34621155264825)"><svg viewBox="0 0 395.52 127.46707619187565" height="127.46707619187565" width="395.52"><g id="textblocktransform"><svg viewBox="0 0 395.52 127.46707619187565" height="127.46707619187565" width="395.52" id="textblock"><g><svg viewBox="0 0 395.52 90.56981465911169" height="90.56981465911169" width="395.52"><g transform="matrix(1,0,0,1,0,0)"><svg width="395.52" viewBox="2 -34.79999923706055 151.96221923828125 34.79999923706055" height="90.56981465911169" data-palette-color="#ffffff"><path d="M7.85 0L2.2 0Q2 0 2-0.25L2-0.25 2.05-34.6Q2.05-34.8 2.3-34.8L2.3-34.8 7.85-34.8Q8.1-34.8 8.1-34.6L8.1-34.6 8.05-21 15.55-21 15.55-34.6Q15.55-34.8 15.75-34.8L15.75-34.8 21.3-34.8Q21.55-34.8 21.55-34.6L21.55-34.6 21.65-0.25Q21.65 0 21.4 0L21.4 0 15.8 0Q15.55 0 15.55-0.25L15.55-0.25 15.55-14.95 8.05-14.95 8.05-0.25Q8.05 0 7.85 0L7.85 0ZM24.05-0.25L24.05-0.25 30.25-34.6Q30.3-34.8 30.5-34.8L30.5-34.8 37.75-34.8Q37.95-34.8 38-34.6L38-34.6 43.95-0.25Q44 0 43.75 0L43.75 0 38.2 0Q38 0 37.95-0.25L37.95-0.25 37.4-3.9 30.6-3.9 30.05-0.25Q30 0 29.8 0L29.8 0 24.25 0Q24.05 0 24.05-0.25ZM33.85-23.3L31.6-9.25 36.4-9.25 34.35-23.3 34.05-25.15 33.85-23.3ZM63.89 0L45.24 0Q44.99 0 44.99-0.25L44.99-0.25 45.05-5.7 57.3-29.1 45.7-29.1Q45.49-29.1 45.49-29.3L45.49-29.3 45.49-34.55Q45.49-34.8 45.7-34.8L45.7-34.8 63.8-34.8Q64.05-34.8 64.05-34.55L64.05-34.55 64.05-29.15 51.84-5.85 63.89-5.85Q64.09-5.85 64.09-5.6L64.09-5.6 64.14-0.25Q64.14 0 63.89 0L63.89 0ZM77.94 0L72.29 0Q72.09 0 72.09-0.25L72.09-0.25 72.09-28.75 65.59-28.75Q65.34-28.75 65.34-29L65.34-29 65.39-34.6Q65.39-34.8 65.59-34.8L65.59-34.8 84.59-34.8Q84.84-34.8 84.84-34.6L84.84-34.6 84.84-29Q84.84-28.75 84.64-28.75L84.64-28.75 78.09-28.75 78.14-0.25Q78.14 0 77.94 0L77.94 0ZM93.14 0L87.49 0Q87.29 0 87.29-0.25L87.29-0.25 87.39-34.6Q87.39-34.8 87.59-34.8L87.59-34.8 97.69-34.8Q100.39-34.8 102.67-33.48 104.94-32.15 106.29-29.93 107.64-27.7 107.64-24.9L107.64-24.9Q107.64-23.05 107.09-21.58 106.54-20.1 105.79-19.07 105.04-18.05 104.44-17.55L104.44-17.55Q107.14-14.55 107.14-10.5L107.14-10.5 107.19-0.25Q107.19 0 106.94 0L106.94 0 101.29 0Q101.09 0 101.09-0.15L101.09-0.15 101.09-10.5Q101.09-12.3 99.82-13.63 98.54-14.95 96.69-14.95L96.69-14.95 93.39-14.95 93.34-0.25Q93.34 0 93.14 0L93.14 0ZM93.39-28.8L93.39-20.95 97.69-20.95Q99.24-20.95 100.44-22.1 101.64-23.25 101.64-24.9L101.64-24.9Q101.64-26.5 100.47-27.65 99.29-28.8 97.69-28.8L97.69-28.8 93.39-28.8ZM109.69-0.25L109.69-0.25 115.89-34.6Q115.94-34.8 116.14-34.8L116.14-34.8 123.39-34.8Q123.59-34.8 123.64-34.6L123.64-34.6 129.59-0.25Q129.64 0 129.39 0L129.39 0 123.84 0Q123.64 0 123.59-0.25L123.59-0.25 123.04-3.9 116.24-3.9 115.69-0.25Q115.64 0 115.44 0L115.44 0 109.89 0Q109.69 0 109.69-0.25ZM119.49-23.3L117.24-9.25 122.04-9.25 119.99-23.3 119.69-25.15 119.49-23.3ZM138.59 0L132.94 0Q132.74 0 132.74-0.25L132.74-0.25 132.84-34.55Q132.84-34.8 133.04-34.8L133.04-34.8 138.64-34.8Q138.84-34.8 138.84-34.55L138.84-34.55 138.84-22.7 146.69-34.6Q146.84-34.8 147.04-34.8L147.04-34.8 152.79-34.8Q152.99-34.8 152.89-34.6L152.89-34.6 144.24-20.8 153.94-0.2Q154.04 0 153.69 0L153.69 0 147.59 0Q147.34 0 147.29-0.2L147.29-0.2 140.54-14.9 138.79-12.15 138.79-0.25Q138.79 0 138.59 0L138.59 0Z" opacity="1" transform="matrix(1,0,0,1,0,0)" fill="#ffffff" class="undefined-text-0" data-fill-palette-color="primary" id="text-0"></path></svg></g></svg></g><g transform="matrix(1,0,0,1,94.9248,111.95117422457614)"><svg viewBox="0 0 300.5952 15.515901967299516" height="15.515901967299516" width="300.5952"><g transform="matrix(1,0,0,1,0,0)"><svg width="300.5952" viewBox="5 -39.04999923706055 987.9614868164062 51" height="15.515901967299516" data-palette-color="#00d1cd"><path d="M7.15 0L7.15 0Q6.25 0 5.63-0.63 5-1.25 5-2.15L5-2.15 5-36.9Q5-37.85 5.63-38.45 6.25-39.05 7.15-39.05L7.15-39.05Q8.1-39.05 8.72-38.45 9.35-37.85 9.35-36.9L9.35-36.9 9.35-21.7 33.35-21.7 33.35-36.9Q33.35-37.85 33.95-38.45 34.55-39.05 35.5-39.05L35.5-39.05Q36.45-39.05 37.05-38.45 37.65-37.85 37.65-36.9L37.65-36.9 37.65-2.15Q37.65-1.25 37.05-0.63 36.45 0 35.5 0L35.5 0Q34.55 0 33.95-0.63 33.35-1.25 33.35-2.15L33.35-2.15 33.35-17.85 9.35-17.85 9.35-2.15Q9.35-1.25 8.72-0.63 8.1 0 7.15 0ZM59 0.25L59 0.25Q55.2 0.25 52.2-1.58 49.2-3.4 47.45-6.55 45.7-9.7 45.7-13.65L45.7-13.65Q45.7-17.65 47.52-20.8 49.35-23.95 52.5-25.78 55.65-27.6 59.6-27.6L59.6-27.6Q63.5-27.6 66.62-25.78 69.75-23.95 71.57-20.8 73.4-17.65 73.45-13.65L73.45-13.65 71.75-12.85Q71.75-9.15 70.07-6.18 68.4-3.2 65.52-1.48 62.65 0.25 59 0.25ZM59.6-3.6L59.6-3.6Q62.35-3.6 64.55-4.9 66.75-6.2 68-8.5 69.25-10.8 69.25-13.65L69.25-13.65Q69.25-16.55 68-18.82 66.75-21.1 64.55-22.43 62.35-23.75 59.6-23.75L59.6-23.75Q56.85-23.75 54.65-22.43 52.45-21.1 51.15-18.82 49.85-16.55 49.85-13.65L49.85-13.65Q49.85-10.8 51.15-8.5 52.45-6.2 54.65-4.9 56.85-3.6 59.6-3.6ZM71.3 0L71.3 0Q70.35 0 69.75-0.58 69.15-1.15 69.15-2.1L69.15-2.1 69.15-10.35 70.1-14.75 73.45-13.65 73.45-2.1Q73.45-1.15 72.82-0.58 72.2 0 71.3 0ZM101-24.1L83.3-1.2 80.1-3.3 98.15-26.55 101-24.1ZM99.7 0L81.65 0Q79.7 0 79.7-1.95L79.7-1.95Q79.7-3.9 81.65-3.9L81.65-3.9 99.7-3.9Q101.65-3.9 101.65-1.95L101.65-1.95Q101.65 0 99.7 0L99.7 0ZM99.4-23.45L81.35-23.45Q79.4-23.45 79.4-25.4L79.4-25.4Q79.4-27.35 81.35-27.35L81.35-27.35 99.4-27.35Q101.35-27.35 101.35-25.4L101.35-25.4Q101.35-23.45 99.4-23.45L99.4-23.45ZM119.09 0.25L119.09 0.25Q115.29 0.25 112.29-1.58 109.29-3.4 107.54-6.55 105.79-9.7 105.79-13.65L105.79-13.65Q105.79-17.65 107.62-20.8 109.44-23.95 112.59-25.78 115.74-27.6 119.69-27.6L119.69-27.6Q123.59-27.6 126.72-25.78 129.84-23.95 131.67-20.8 133.49-17.65 133.54-13.65L133.54-13.65 131.84-12.85Q131.84-9.15 130.17-6.18 128.49-3.2 125.62-1.48 122.74 0.25 119.09 0.25ZM119.69-3.6L119.69-3.6Q122.44-3.6 124.64-4.9 126.84-6.2 128.09-8.5 129.34-10.8 129.34-13.65L129.34-13.65Q129.34-16.55 128.09-18.82 126.84-21.1 124.64-22.43 122.44-23.75 119.69-23.75L119.69-23.75Q116.94-23.75 114.74-22.43 112.54-21.1 111.24-18.82 109.94-16.55 109.94-13.65L109.94-13.65Q109.94-10.8 111.24-8.5 112.54-6.2 114.74-4.9 116.94-3.6 119.69-3.6ZM131.39 0L131.39 0Q130.44 0 129.84-0.58 129.24-1.15 129.24-2.1L129.24-2.1 129.24-10.35 130.19-14.75 133.54-13.65 133.54-2.1Q133.54-1.15 132.92-0.58 132.29 0 131.39 0ZM145.24-16.95L142.94-16.95Q143.04-20 144.52-22.43 145.99-24.85 148.39-26.25 150.79-27.65 153.74-27.65L153.74-27.65Q156.29-27.65 157.62-26.9 158.94-26.15 158.59-24.85L158.59-24.85Q158.44-24.1 157.97-23.83 157.49-23.55 156.87-23.55 156.24-23.55 155.44-23.6L155.44-23.6Q152.54-24 150.24-23.28 147.94-22.55 146.59-20.9 145.24-19.25 145.24-16.95L145.24-16.95ZM143.14 0L143.14 0Q142.14 0 141.59-0.55 141.04-1.1 141.04-2.1L141.04-2.1 141.04-25.25Q141.04-26.25 141.59-26.8 142.14-27.35 143.14-27.35L143.14-27.35Q144.14-27.35 144.69-26.8 145.24-26.25 145.24-25.25L145.24-25.25 145.24-2.1Q145.24-1.1 144.69-0.55 144.14 0 143.14 0ZM174.84 0.25L174.84 0.25Q170.89 0.25 167.74-1.58 164.59-3.4 162.76-6.55 160.94-9.7 160.94-13.7L160.94-13.7Q160.94-17.65 162.69-20.8 164.44-23.95 167.44-25.78 170.44-27.6 174.24-27.6L174.24-27.6Q177.44-27.6 180.06-26.23 182.69-24.85 184.39-22.6L184.39-22.6 184.39-36.9Q184.39-37.9 184.99-38.48 185.59-39.05 186.54-39.05L186.54-39.05Q187.49-39.05 188.09-38.48 188.69-37.9 188.69-36.9L188.69-36.9 188.69-13.55Q188.59-9.65 186.76-6.53 184.94-3.4 181.84-1.58 178.74 0.25 174.84 0.25ZM174.84-3.6L174.84-3.6Q177.59-3.6 179.79-4.93 181.99-6.25 183.24-8.53 184.49-10.8 184.49-13.7L184.49-13.7Q184.49-16.55 183.24-18.85 181.99-21.15 179.79-22.45 177.59-23.75 174.84-23.75L174.84-23.75Q172.09-23.75 169.89-22.45 167.69-21.15 166.39-18.85 165.09-16.55 165.09-13.7L165.09-13.7Q165.09-10.8 166.39-8.53 167.69-6.25 169.89-4.93 172.09-3.6 174.84-3.6ZM210.14 0.25L210.14 0.25Q206.09 0.25 202.96-1.55 199.84-3.35 198.04-6.5 196.24-9.65 196.24-13.65L196.24-13.65Q196.24-17.7 198.04-20.85 199.84-24 202.96-25.8 206.09-27.6 210.14-27.6L210.14-27.6Q214.14-27.6 217.24-25.8 220.34-24 222.14-20.85 223.94-17.7 223.99-13.65L223.99-13.65Q223.99-9.65 222.19-6.5 220.39-3.35 217.26-1.55 214.14 0.25 210.14 0.25ZM210.14-3.6L210.14-3.6Q212.94-3.6 215.14-4.9 217.34-6.2 218.56-8.47 219.79-10.75 219.79-13.65L219.79-13.65Q219.79-16.55 218.56-18.85 217.34-21.15 215.14-22.45 212.94-23.75 210.14-23.75L210.14-23.75Q207.34-23.75 205.14-22.45 202.94-21.15 201.66-18.85 200.39-16.55 200.39-13.65L200.39-13.65Q200.39-10.75 201.66-8.47 202.94-6.2 205.14-4.9 207.34-3.6 210.14-3.6ZM243.23 0.3L243.23 0.3Q239.73 0.3 236.96-1.18 234.18-2.65 232.58-5.5 230.98-8.35 230.98-12.5L230.98-12.5 230.98-25.25Q230.98-26.15 231.58-26.75 232.18-27.35 233.08-27.35L233.08-27.35Q234.03-27.35 234.63-26.75 235.23-26.15 235.23-25.25L235.23-25.25 235.23-12.5Q235.23-9.5 236.36-7.55 237.48-5.6 239.43-4.65 241.38-3.7 243.83-3.7L243.83-3.7Q246.18-3.7 248.06-4.6 249.93-5.5 251.03-7.1 252.13-8.7 252.13-10.7L252.13-10.7 255.03-10.7Q254.93-7.55 253.38-5.08 251.83-2.6 249.18-1.15 246.53 0.3 243.23 0.3ZM254.28 0L254.28 0Q253.33 0 252.73-0.6 252.13-1.2 252.13-2.15L252.13-2.15 252.13-25.25Q252.13-26.2 252.73-26.78 253.33-27.35 254.28-27.35L254.28-27.35Q255.23-27.35 255.83-26.78 256.43-26.2 256.43-25.25L256.43-25.25 256.43-2.15Q256.43-1.2 255.83-0.6 255.23 0 254.28 0ZM275.13 0.25L275.13 0.25Q271.98 0.25 269.06-0.78 266.13-1.8 264.38-3.7L264.38-3.7Q263.78-4.35 263.88-5.2 263.98-6.05 264.68-6.65L264.68-6.65Q265.48-7.25 266.31-7.13 267.13-7 267.73-6.4L267.73-6.4Q268.78-5.15 270.73-4.38 272.68-3.6 275.03-3.6L275.03-3.6Q278.48-3.6 280.08-4.78 281.68-5.95 281.73-7.65L281.73-7.65Q281.78-9.35 280.16-10.5 278.53-11.65 274.63-12.3L274.63-12.3Q269.58-13.15 267.26-15.15 264.93-17.15 264.93-19.95L264.93-19.95Q264.93-22.5 266.33-24.2 267.73-25.9 270.01-26.75 272.28-27.6 274.93-27.6L274.93-27.6Q278.28-27.6 280.73-26.48 283.18-25.35 284.68-23.45L284.68-23.45Q285.28-22.75 285.18-21.98 285.08-21.2 284.38-20.7L284.38-20.7Q283.68-20.3 282.81-20.45 281.93-20.6 281.33-21.25L281.33-21.25Q280.08-22.6 278.48-23.2 276.88-23.8 274.83-23.8L274.83-23.8Q272.28-23.8 270.66-22.8 269.03-21.8 269.03-20.2L269.03-20.2Q269.03-19.1 269.61-18.3 270.18-17.5 271.68-16.88 273.18-16.25 275.88-15.75L275.88-15.75Q279.63-15.1 281.81-13.95 283.98-12.8 284.93-11.23 285.88-9.65 285.88-7.75L285.88-7.75Q285.88-5.45 284.56-3.65 283.23-1.85 280.81-0.8 278.38 0.25 275.13 0.25ZM315.93 0L315.93 0Q315.13 0 314.55-0.48 313.98-0.95 313.73-1.75L313.73-1.75 303.58-36Q303.18-37.35 303.68-38.2 304.18-39.05 305.33-39.05L305.33-39.05Q305.98-39.05 306.58-38.68 307.18-38.3 307.43-37.4L307.43-37.4 316.53-5.75 315.38-5.75 323.93-36.75Q324.08-37.35 324.65-37.75 325.23-38.15 325.98-38.15L325.98-38.15Q326.63-38.15 327.25-37.8 327.88-37.45 328.03-36.7L328.03-36.7 336.63-5.75 335.53-5.75 344.63-37.6Q345.03-39.05 346.78-39.05L346.78-39.05Q347.93-39.05 348.33-38.15 348.73-37.25 348.38-36L348.38-36 338.23-1.8Q337.98-0.95 337.4-0.48 336.83 0 336.03 0L336.03 0Q335.28 0 334.7-0.5 334.13-1 333.88-1.75L333.88-1.75 325.38-33.3 326.58-33.3 318.13-1.8Q317.83-1 317.25-0.5 316.68 0 315.93 0ZM360.32 0.25L360.32 0.25Q356.52 0.25 353.52-1.58 350.52-3.4 348.77-6.55 347.02-9.7 347.02-13.65L347.02-13.65Q347.02-17.65 348.85-20.8 350.67-23.95 353.82-25.78 356.97-27.6 360.92-27.6L360.92-27.6Q364.82-27.6 367.95-25.78 371.07-23.95 372.9-20.8 374.72-17.65 374.77-13.65L374.77-13.65 373.07-12.85Q373.07-9.15 371.4-6.18 369.72-3.2 366.85-1.48 363.97 0.25 360.32 0.25ZM360.92-3.6L360.92-3.6Q363.67-3.6 365.87-4.9 368.07-6.2 369.32-8.5 370.57-10.8 370.57-13.65L370.57-13.65Q370.57-16.55 369.32-18.82 368.07-21.1 365.87-22.43 363.67-23.75 360.92-23.75L360.92-23.75Q358.17-23.75 355.97-22.43 353.77-21.1 352.47-18.82 351.17-16.55 351.17-13.65L351.17-13.65Q351.17-10.8 352.47-8.5 353.77-6.2 355.97-4.9 358.17-3.6 360.92-3.6ZM372.62 0L372.62 0Q371.67 0 371.07-0.58 370.47-1.15 370.47-2.1L370.47-2.1 370.47-10.35 371.42-14.75 374.77-13.65 374.77-2.1Q374.77-1.15 374.15-0.58 373.52 0 372.62 0ZM391.97 0.25L391.97 0.25Q388.82 0.25 385.9-0.78 382.97-1.8 381.22-3.7L381.22-3.7Q380.62-4.35 380.72-5.2 380.82-6.05 381.52-6.65L381.52-6.65Q382.32-7.25 383.15-7.13 383.97-7 384.57-6.4L384.57-6.4Q385.62-5.15 387.57-4.38 389.52-3.6 391.87-3.6L391.87-3.6Q395.32-3.6 396.92-4.78 398.52-5.95 398.57-7.65L398.57-7.65Q398.62-9.35 397-10.5 395.37-11.65 391.47-12.3L391.47-12.3Q386.42-13.15 384.1-15.15 381.77-17.15 381.77-19.95L381.77-19.95Q381.77-22.5 383.17-24.2 384.57-25.9 386.85-26.75 389.12-27.6 391.77-27.6L391.77-27.6Q395.12-27.6 397.57-26.48 400.02-25.35 401.52-23.45L401.52-23.45Q402.12-22.75 402.02-21.98 401.92-21.2 401.22-20.7L401.22-20.7Q400.52-20.3 399.65-20.45 398.77-20.6 398.17-21.25L398.17-21.25Q396.92-22.6 395.32-23.2 393.72-23.8 391.67-23.8L391.67-23.8Q389.12-23.8 387.5-22.8 385.87-21.8 385.87-20.2L385.87-20.2Q385.87-19.1 386.45-18.3 387.02-17.5 388.52-16.88 390.02-16.25 392.72-15.75L392.72-15.75Q396.47-15.1 398.65-13.95 400.82-12.8 401.77-11.23 402.72-9.65 402.72-7.75L402.72-7.75Q402.72-5.45 401.4-3.65 400.07-1.85 397.65-0.8 395.22 0.25 391.97 0.25ZM420.72 0L419.72 0Q417.12 0 415.07-1.25 413.02-2.5 411.84-4.7 410.67-6.9 410.67-9.65L410.67-9.65 410.67-33.9Q410.67-34.85 411.24-35.45 411.82-36.05 412.77-36.05L412.77-36.05Q413.67-36.05 414.27-35.45 414.87-34.85 414.87-33.9L414.87-33.9 414.87-9.65Q414.87-7.3 416.24-5.78 417.62-4.25 419.72-4.25L419.72-4.25 421.17-4.25Q422.02-4.25 422.57-3.65 423.12-3.05 423.12-2.1L423.12-2.1Q423.12-1.15 422.44-0.58 421.77 0 420.72 0L420.72 0ZM420.07-22.7L407.72-22.7Q406.87-22.7 406.32-23.2 405.77-23.7 405.77-24.5L405.77-24.5Q405.77-25.3 406.32-25.83 406.87-26.35 407.72-26.35L407.72-26.35 420.07-26.35Q420.92-26.35 421.47-25.83 422.02-25.3 422.02-24.5L422.02-24.5Q422.02-23.7 421.47-23.2 420.92-22.7 420.07-22.7L420.07-22.7ZM441.92 0.25L441.92 0.25Q437.82 0.25 434.67-1.53 431.52-3.3 429.72-6.45 427.92-9.6 427.92-13.65L427.92-13.65Q427.92-17.75 429.62-20.88 431.32-24 434.29-25.8 437.27-27.6 441.17-27.6L441.17-27.6Q445.02-27.6 447.82-25.88 450.62-24.15 452.14-21.1 453.67-18.05 453.67-14.15L453.67-14.15Q453.67-13.3 453.12-12.78 452.57-12.25 451.72-12.25L451.72-12.25 430.82-12.25 430.82-15.7 451.92-15.7 449.82-14.2Q449.82-16.95 448.77-19.15 447.72-21.35 445.79-22.6 443.87-23.85 441.17-23.85L441.17-23.85Q438.32-23.85 436.22-22.53 434.12-21.2 432.97-18.9 431.82-16.6 431.82-13.65L431.82-13.65Q431.82-10.7 433.12-8.43 434.42-6.15 436.69-4.83 438.97-3.5 441.92-3.5L441.92-3.5Q443.62-3.5 445.39-4.1 447.17-4.7 448.22-5.6L448.22-5.6Q448.82-6.1 449.59-6.13 450.37-6.15 450.92-5.7L450.92-5.7Q451.62-5.05 451.64-4.28 451.67-3.5 451.02-2.95L451.02-2.95Q449.32-1.55 446.79-0.65 444.27 0.25 441.92 0.25ZM486.71 0L486.71 0Q485.81 0 485.19-0.63 484.56-1.25 484.56-2.15L484.56-2.15 484.56-39.05 488.91-39.05 488.91-2.15Q488.91-1.25 488.29-0.63 487.66 0 486.71 0ZM500.41-35.1L473.06-35.1Q472.16-35.1 471.61-35.65 471.06-36.2 471.06-37.05L471.06-37.05Q471.06-37.95 471.61-38.5 472.16-39.05 473.06-39.05L473.06-39.05 500.41-39.05Q501.31-39.05 501.86-38.5 502.41-37.95 502.41-37.05L502.41-37.05Q502.41-36.2 501.86-35.65 501.31-35.1 500.41-35.1L500.41-35.1ZM504.86-16.95L502.56-16.95Q502.66-20 504.13-22.43 505.61-24.85 508.01-26.25 510.41-27.65 513.36-27.65L513.36-27.65Q515.91-27.65 517.23-26.9 518.56-26.15 518.21-24.85L518.21-24.85Q518.06-24.1 517.58-23.83 517.11-23.55 516.48-23.55 515.86-23.55 515.06-23.6L515.06-23.6Q512.16-24 509.86-23.28 507.56-22.55 506.21-20.9 504.86-19.25 504.86-16.95L504.86-16.95ZM502.76 0L502.76 0Q501.76 0 501.21-0.55 500.66-1.1 500.66-2.1L500.66-2.1 500.66-25.25Q500.66-26.25 501.21-26.8 501.76-27.35 502.76-27.35L502.76-27.35Q503.76-27.35 504.31-26.8 504.86-26.25 504.86-25.25L504.86-25.25 504.86-2.1Q504.86-1.1 504.31-0.55 503.76 0 502.76 0ZM533.86 0.25L533.86 0.25Q530.05 0.25 527.05-1.58 524.05-3.4 522.3-6.55 520.55-9.7 520.55-13.65L520.55-13.65Q520.55-17.65 522.38-20.8 524.21-23.95 527.36-25.78 530.5-27.6 534.46-27.6L534.46-27.6Q538.36-27.6 541.48-25.78 544.61-23.95 546.43-20.8 548.25-17.65 548.3-13.65L548.3-13.65 546.61-12.85Q546.61-9.15 544.93-6.18 543.25-3.2 540.38-1.48 537.5 0.25 533.86 0.25ZM534.46-3.6L534.46-3.6Q537.21-3.6 539.4-4.9 541.61-6.2 542.86-8.5 544.11-10.8 544.11-13.65L544.11-13.65Q544.11-16.55 542.86-18.82 541.61-21.1 539.4-22.43 537.21-23.75 534.46-23.75L534.46-23.75Q531.71-23.75 529.5-22.43 527.3-21.1 526-18.82 524.71-16.55 524.71-13.65L524.71-13.65Q524.71-10.8 526-8.5 527.3-6.2 529.5-4.9 531.71-3.6 534.46-3.6ZM546.15 0L546.15 0Q545.21 0 544.61-0.58 544-1.15 544-2.1L544-2.1 544-10.35 544.96-14.75 548.3-13.65 548.3-2.1Q548.3-1.15 547.68-0.58 547.05 0 546.15 0ZM568.05 0.25L568.05 0.25Q564.1 0.25 561-1.58 557.9-3.4 556.13-6.55 554.35-9.7 554.35-13.65L554.35-13.65Q554.35-17.65 556.08-20.8 557.8-23.95 560.78-25.78 563.75-27.6 567.65-27.6L567.65-27.6Q570.65-27.6 573.2-26.43 575.75-25.25 577.7-22.9L577.7-22.9Q578.3-22.2 578.13-21.48 577.95-20.75 577.2-20.2L577.2-20.2Q576.6-19.75 575.85-19.9 575.1-20.05 574.55-20.7L574.55-20.7Q571.8-23.75 567.65-23.75L567.65-23.75Q564.95-23.75 562.88-22.45 560.8-21.15 559.65-18.9 558.5-16.65 558.5-13.65L558.5-13.65Q558.5-10.75 559.7-8.47 560.9-6.2 563.08-4.9 565.25-3.6 568.05-3.6L568.05-3.6Q569.95-3.6 571.48-4.1 573-4.6 574.2-5.6L574.2-5.6Q574.85-6.15 575.58-6.23 576.3-6.3 576.9-5.8L576.9-5.8Q577.55-5.2 577.65-4.45 577.75-3.7 577.15-3.1L577.15-3.1Q573.5 0.25 568.05 0.25ZM605.9-24.3L589.4-9.45 586.8-12.25 603.3-27.15Q603.95-27.75 604.7-27.7 605.45-27.65 606.05-27L606.05-27Q606.65-26.35 606.6-25.6 606.55-24.85 605.9-24.3L605.9-24.3ZM587.8 0L587.8 0Q586.85 0 586.27-0.58 585.7-1.15 585.7-2.1L585.7-2.1 585.7-36.95Q585.7-37.9 586.27-38.48 586.85-39.05 587.8-39.05L587.8-39.05Q588.7-39.05 589.27-38.48 589.85-37.9 589.85-36.95L589.85-36.95 589.85-2.1Q589.85-1.15 589.27-0.58 588.7 0 587.8 0ZM606.05-0.25L606.05-0.25Q605.35 0.35 604.57 0.28 603.8 0.2 603.25-0.5L603.25-0.5 592.4-13.85 595.4-16.55 606.35-3.05Q606.9-2.35 606.85-1.6 606.8-0.85 606.05-0.25ZM617.1 0L617.1 0Q616.15 0 615.55-0.6 614.95-1.2 614.95-2.15L614.95-2.15 614.95-25.2Q614.95-26.2 615.55-26.78 616.15-27.35 617.1-27.35L617.1-27.35Q618.05-27.35 618.62-26.78 619.2-26.2 619.2-25.2L619.2-25.2 619.2-2.15Q619.2-1.2 618.62-0.6 618.05 0 617.1 0ZM617.05-32.3L617.05-32.3Q615.85-32.3 615-33.15 614.15-34 614.15-35.25L614.15-35.25Q614.15-36.5 615.02-37.33 615.9-38.15 617.1-38.15L617.1-38.15Q618.25-38.15 619.12-37.33 620-36.5 620-35.25L620-35.25Q620-34 619.12-33.15 618.25-32.3 617.05-32.3ZM652.24 0L652.24 0Q651.29 0 650.69-0.6 650.09-1.2 650.09-2.1L650.09-2.1 650.09-14.85Q650.09-17.9 648.94-19.83 647.79-21.75 645.87-22.7 643.94-23.65 641.44-23.65L641.44-23.65Q639.14-23.65 637.24-22.75 635.34-21.85 634.24-20.28 633.14-18.7 633.14-16.65L633.14-16.65 630.29-16.65Q630.34-19.8 631.92-22.28 633.49-24.75 636.14-26.2 638.79-27.65 642.04-27.65L642.04-27.65Q645.59-27.65 648.37-26.18 651.14-24.7 652.74-21.85 654.34-19 654.34-14.85L654.34-14.85 654.34-2.1Q654.34-1.2 653.74-0.6 653.14 0 652.24 0ZM631.04 0L631.04 0Q630.09 0 629.49-0.58 628.89-1.15 628.89-2.1L628.89-2.1 628.89-25.2Q628.89-26.2 629.49-26.78 630.09-27.35 631.04-27.35L631.04-27.35Q631.99-27.35 632.57-26.78 633.14-26.2 633.14-25.2L633.14-25.2 633.14-2.1Q633.14-1.15 632.57-0.58 631.99 0 631.04 0ZM674.69 0.25L674.69 0.25Q670.79 0.25 667.79-1.53 664.79-3.3 663.09-6.45 661.39-9.6 661.39-13.65L661.39-13.65Q661.39-17.75 663.19-20.9 664.99-24.05 668.12-25.83 671.24-27.6 675.29-27.6L675.29-27.6Q679.29-27.6 682.42-25.83 685.54-24.05 687.32-20.9 689.09-17.75 689.14-13.65L689.14-13.65 686.64-12.85Q686.64-9.05 685.09-6.08 683.54-3.1 680.84-1.43 678.14 0.25 674.69 0.25ZM675.29 11L675.29 11Q671.49 11 668.47 9.55 665.44 8.1 663.39 5.5L663.39 5.5Q662.84 4.8 662.94 4.03 663.04 3.25 663.74 2.8L663.74 2.8Q664.49 2.3 665.34 2.45 666.19 2.6 666.69 3.3L666.69 3.3Q668.09 5.05 670.29 6.1 672.49 7.15 675.39 7.15L675.39 7.15Q678.04 7.15 680.22 5.88 682.39 4.6 683.67 2.2 684.94-0.2 684.94-3.45L684.94-3.45 684.94-10.9 686.49-14.3 689.14-13.65 689.14-3.25Q689.14 0.75 687.34 3.98 685.54 7.2 682.44 9.1 679.34 11 675.29 11ZM675.29-3.6L675.29-3.6Q678.09-3.6 680.29-4.88 682.49-6.15 683.72-8.43 684.94-10.7 684.94-13.65L684.94-13.65Q684.94-16.6 683.72-18.9 682.49-21.2 680.29-22.48 678.09-23.75 675.29-23.75L675.29-23.75Q672.44-23.75 670.24-22.48 668.04-21.2 666.79-18.9 665.54-16.6 665.54-13.65L665.54-13.65Q665.54-10.7 666.79-8.43 668.04-6.15 670.24-4.88 672.44-3.6 675.29-3.6ZM713.94 0L713.94 0Q713.04 0 712.41-0.63 711.79-1.25 711.79-2.15L711.79-2.15 711.79-36.9Q711.79-37.85 712.41-38.45 713.04-39.05 713.94-39.05L713.94-39.05Q715.24-39.05 715.89-37.9L715.89-37.9 732.34-5.15 730.69-5.15 746.79-37.9Q747.44-39.05 748.74-39.05L748.74-39.05Q749.64-39.05 750.24-38.45 750.84-37.85 750.84-36.9L750.84-36.9 750.84-2.15Q750.84-1.25 750.21-0.63 749.59 0 748.74 0L748.74 0Q747.79 0 747.16-0.63 746.54-1.25 746.54-2.15L746.54-2.15 746.54-31.1 747.44-31.15 733.24-2.15Q732.59-1.1 731.34-1.1L731.34-1.1Q729.94-1.1 729.34-2.4L729.34-2.4 715.14-30.85 716.14-31.1 716.14-2.15Q716.14-1.25 715.49-0.63 714.84 0 713.94 0ZM772.18 0.25L772.18 0.25Q768.38 0.25 765.38-1.58 762.38-3.4 760.63-6.55 758.88-9.7 758.88-13.65L758.88-13.65Q758.88-17.65 760.71-20.8 762.53-23.95 765.68-25.78 768.83-27.6 772.78-27.6L772.78-27.6Q776.68-27.6 779.81-25.78 782.93-23.95 784.76-20.8 786.58-17.65 786.63-13.65L786.63-13.65 784.93-12.85Q784.93-9.15 783.26-6.18 781.58-3.2 778.71-1.48 775.83 0.25 772.18 0.25ZM772.78-3.6L772.78-3.6Q775.53-3.6 777.73-4.9 779.93-6.2 781.18-8.5 782.43-10.8 782.43-13.65L782.43-13.65Q782.43-16.55 781.18-18.82 779.93-21.1 777.73-22.43 775.53-23.75 772.78-23.75L772.78-23.75Q770.03-23.75 767.83-22.43 765.63-21.1 764.33-18.82 763.03-16.55 763.03-13.65L763.03-13.65Q763.03-10.8 764.33-8.5 765.63-6.2 767.83-4.9 770.03-3.6 772.78-3.6ZM784.48 0L784.48 0Q783.53 0 782.93-0.58 782.33-1.15 782.33-2.1L782.33-2.1 782.33-10.35 783.28-14.75 786.63-13.65 786.63-2.1Q786.63-1.15 786.01-0.58 785.38 0 784.48 0ZM806.58 0.25L806.58 0.25Q802.63 0.25 799.48-1.58 796.33-3.4 794.51-6.55 792.68-9.7 792.68-13.7L792.68-13.7Q792.68-17.65 794.43-20.8 796.18-23.95 799.18-25.78 802.18-27.6 805.98-27.6L805.98-27.6Q809.18-27.6 811.81-26.23 814.43-24.85 816.13-22.6L816.13-22.6 816.13-36.9Q816.13-37.9 816.73-38.48 817.33-39.05 818.28-39.05L818.28-39.05Q819.23-39.05 819.83-38.48 820.43-37.9 820.43-36.9L820.43-36.9 820.43-13.55Q820.33-9.65 818.51-6.53 816.68-3.4 813.58-1.58 810.48 0.25 806.58 0.25ZM806.58-3.6L806.58-3.6Q809.33-3.6 811.53-4.93 813.73-6.25 814.98-8.53 816.23-10.8 816.23-13.7L816.23-13.7Q816.23-16.55 814.98-18.85 813.73-21.15 811.53-22.45 809.33-23.75 806.58-23.75L806.58-23.75Q803.83-23.75 801.63-22.45 799.43-21.15 798.13-18.85 796.83-16.55 796.83-13.7L796.83-13.7Q796.83-10.8 798.13-8.53 799.43-6.25 801.63-4.93 803.83-3.6 806.58-3.6ZM841.98 0.25L841.98 0.25Q837.88 0.25 834.73-1.53 831.58-3.3 829.78-6.45 827.98-9.6 827.98-13.65L827.98-13.65Q827.98-17.75 829.68-20.88 831.38-24 834.35-25.8 837.33-27.6 841.23-27.6L841.23-27.6Q845.08-27.6 847.88-25.88 850.68-24.15 852.2-21.1 853.73-18.05 853.73-14.15L853.73-14.15Q853.73-13.3 853.18-12.78 852.63-12.25 851.78-12.25L851.78-12.25 830.88-12.25 830.88-15.7 851.98-15.7 849.88-14.2Q849.88-16.95 848.83-19.15 847.78-21.35 845.85-22.6 843.93-23.85 841.23-23.85L841.23-23.85Q838.38-23.85 836.28-22.53 834.18-21.2 833.03-18.9 831.88-16.6 831.88-13.65L831.88-13.65Q831.88-10.7 833.18-8.43 834.48-6.15 836.75-4.83 839.03-3.5 841.98-3.5L841.98-3.5Q843.68-3.5 845.45-4.1 847.23-4.7 848.28-5.6L848.28-5.6Q848.88-6.1 849.65-6.13 850.43-6.15 850.98-5.7L850.98-5.7Q851.68-5.05 851.7-4.28 851.73-3.5 851.08-2.95L851.08-2.95Q849.38-1.55 846.85-0.65 844.33 0.25 841.98 0.25ZM900.72 0L877.52 0Q876.62 0 876-0.63 875.37-1.25 875.37-2.15L875.37-2.15 875.37-36.9Q875.37-37.85 876-38.45 876.62-39.05 877.52-39.05L877.52-39.05 900.72-39.05Q901.62-39.05 902.25-38.48 902.87-37.9 902.87-36.95L902.87-36.95Q902.87-36.1 902.25-35.52 901.62-34.95 900.72-34.95L900.72-34.95 879.72-34.95 879.72-21.7 894.92-21.7Q895.87-21.7 896.47-21.1 897.07-20.5 897.07-19.65L897.07-19.65Q897.07-18.75 896.47-18.15 895.87-17.55 894.92-17.55L894.92-17.55 879.72-17.55 879.72-4.1 900.72-4.1Q901.62-4.1 902.25-3.53 902.87-2.95 902.87-2.1L902.87-2.1Q902.87-1.15 902.25-0.58 901.62 0 900.72 0L900.72 0ZM921.47 0.25L921.47 0.25Q917.67 0.25 914.67-1.58 911.67-3.4 909.92-6.55 908.17-9.7 908.17-13.65L908.17-13.65Q908.17-17.65 910-20.8 911.82-23.95 914.97-25.78 918.12-27.6 922.07-27.6L922.07-27.6Q925.97-27.6 929.1-25.78 932.22-23.95 934.05-20.8 935.87-17.65 935.92-13.65L935.92-13.65 934.22-12.85Q934.22-9.15 932.55-6.18 930.87-3.2 928-1.48 925.12 0.25 921.47 0.25ZM922.07-3.6L922.07-3.6Q924.82-3.6 927.02-4.9 929.22-6.2 930.47-8.5 931.72-10.8 931.72-13.65L931.72-13.65Q931.72-16.55 930.47-18.82 929.22-21.1 927.02-22.43 924.82-23.75 922.07-23.75L922.07-23.75Q919.32-23.75 917.12-22.43 914.92-21.1 913.62-18.82 912.32-16.55 912.32-13.65L912.32-13.65Q912.32-10.8 913.62-8.5 914.92-6.2 917.12-4.9 919.32-3.6 922.07-3.6ZM933.77 0L933.77 0Q932.82 0 932.22-0.58 931.62-1.15 931.62-2.1L931.62-2.1 931.62-10.35 932.57-14.75 935.92-13.65 935.92-2.1Q935.92-1.15 935.3-0.58 934.67 0 933.77 0ZM953.12 0.25L953.12 0.25Q949.97 0.25 947.04-0.78 944.12-1.8 942.37-3.7L942.37-3.7Q941.77-4.35 941.87-5.2 941.97-6.05 942.67-6.65L942.67-6.65Q943.47-7.25 944.29-7.13 945.12-7 945.72-6.4L945.72-6.4Q946.77-5.15 948.72-4.38 950.67-3.6 953.02-3.6L953.02-3.6Q956.47-3.6 958.07-4.78 959.67-5.95 959.72-7.65L959.72-7.65Q959.77-9.35 958.14-10.5 956.52-11.65 952.62-12.3L952.62-12.3Q947.57-13.15 945.24-15.15 942.92-17.15 942.92-19.95L942.92-19.95Q942.92-22.5 944.32-24.2 945.72-25.9 947.99-26.75 950.27-27.6 952.92-27.6L952.92-27.6Q956.27-27.6 958.72-26.48 961.17-25.35 962.67-23.45L962.67-23.45Q963.27-22.75 963.17-21.98 963.07-21.2 962.37-20.7L962.37-20.7Q961.67-20.3 960.79-20.45 959.92-20.6 959.32-21.25L959.32-21.25Q958.07-22.6 956.47-23.2 954.87-23.8 952.82-23.8L952.82-23.8Q950.27-23.8 948.64-22.8 947.02-21.8 947.02-20.2L947.02-20.2Q947.02-19.1 947.59-18.3 948.17-17.5 949.67-16.88 951.17-16.25 953.87-15.75L953.87-15.75Q957.62-15.1 959.79-13.95 961.97-12.8 962.92-11.23 963.87-9.65 963.87-7.75L963.87-7.75Q963.87-5.45 962.54-3.65 961.22-1.85 958.79-0.8 956.37 0.25 953.12 0.25ZM975.17 11.95L975.17 11.95Q974.77 11.95 974.17 11.7L974.17 11.7Q972.32 10.85 973.17 9.05L973.17 9.05 989.02-26.15Q989.82-27.95 991.67-27.15L991.67-27.15Q993.52-26.4 992.72-24.55L992.72-24.55 976.82 10.65Q976.27 11.95 975.17 11.95ZM980.87-0.95L980.87-0.95Q980.02-0.55 979.32-0.83 978.62-1.1 978.17-1.9L978.17-1.9 966.92-24.55Q966.52-25.35 966.82-26.08 967.12-26.8 967.92-27.2L967.92-27.2Q968.77-27.55 969.47-27.3 970.17-27.05 970.57-26.2L970.57-26.2 981.52-3.55Q981.97-2.75 981.82-2.02 981.67-1.3 980.87-0.95Z" opacity="1" transform="matrix(1,0,0,1,0,0)" fill="#00d1cd" class="undefined-text-1" data-fill-palette-color="secondary" id="text-1"></path></svg></g></svg></g></svg></g></svg></g><g transform="matrix(1,0,0,1,446.4503984849363,0)"><svg viewBox="0 0 176.2505322184009 176.15949929717215" height="176.15949929717215" width="176.2505322184009"><g><svg xmlns="http://www.w3.org/2000/svg" viewBox="1.9902141094207764 2 60.03102111816406 60.00001525878906" x="0" y="0" height="176.15949929717215" width="176.2505322184009" class="icon-icon-0" data-fill-palette-color="accent" id="icon-0"><g fill="#00d1cd" data-fill-palette-color="accent"><path d="M46 42a4 4 0 1 0-4 4A4 4 0 0 0 46 42Zm-4 2a2 2 0 1 1 2-2A2 2 0 0 1 42 44Z" fill="#00d1cd" data-fill-palette-color="accent"></path><path d="M57 41H49a1 1 0 0 0-1 1 6.006 6.006 0 0 1-3 5.193 1 1 0 0 0-0.367 1.367v0h0l4 6.928a1 1 0 0 0 0.608 0.467 1.032 1.032 0 0 0 0.258 0.033 1 1 0 0 0 0.5-0.135A16.077 16.077 0 0 0 58 42 1 1 0 0 0 57 41ZM49.847 53.591l-3.013-5.219A8.024 8.024 0 0 0 49.937 43h6.027A14.087 14.087 0 0 1 49.847 53.591Z" fill="#00d1cd" data-fill-palette-color="accent"></path><path d="M39 47.193A6.006 6.006 0 0 1 36 42a1 1 0 0 0-1-1H27a1 1 0 0 0-1 1 16.077 16.077 0 0 0 8 13.855 1 1 0 0 0 0.5 0.135 1.032 1.032 0 0 0 0.258-0.033 1 1 0 0 0 0.608-0.467l4-6.93A1 1 0 0 0 39 47.193Zm-4.846 6.4A14.087 14.087 0 0 1 28.036 43h6.027a8.03 8.03 0 0 0 3.1 5.373Z" fill="#00d1cd" data-fill-palette-color="accent"></path><path d="M37.634 36.44a1 1 0 0 0 0.609 0.466 0.981 0.981 0 0 0 0.257 0.034A1 1 0 0 0 39 36.8 6.016 6.016 0 0 1 45 36.8a1 1 0 0 0 1.368-0.365l4-6.928a1 1 0 0 0-0.491-1.427l-0.49-0.2A19.023 19.023 0 0 0 42 26a19.023 19.023 0 0 0-7.385 1.884l-0.49 0.2a1 1 0 0 0-0.491 1.427ZM42 28a15.827 15.827 0 0 1 6.06 1.5L45.1 34.626a8.009 8.009 0 0 0-6.206 0l-2.957-5.12A15.827 15.827 0 0 1 42 28Z" fill="#00d1cd" data-fill-palette-color="accent"></path><path d="M46 22.4V16a1.087 1.087 0 0 0 0.64-0.25A3.754 3.754 0 0 0 48 13.07a2.994 2.994 0 0 0-0.87-2.18A2.926 2.926 0 0 0 46 10.18V7.24l1.89-3.79A1 1 0 0 0 47 2H3a1 1 0 0 0-0.89 1.45L4 7.24V10a1.087 1.087 0 0 0-0.64 0.25A3.754 3.754 0 0 0 2 12.93a2.994 2.994 0 0 0 0.87 2.18A2.926 2.926 0 0 0 4 15.82V48.18a2.857 2.857 0 0 0-1.1 0.69 2.989 2.989 0 0 0-0.67 3.32A2.877 2.877 0 0 0 4 53.83v2.93L2.11 60.55A1 1 0 0 0 3 62H42a20 20 0 0 0 4-39.6ZM45.38 4l-1 2H5.62l-1-2ZM44 8v2H6V8ZM4.44 12H45a0.949 0.949 0 0 1 0.71 0.31 0.936 0.936 0 0 1 0.29 0.71 1.576 1.576 0 0 1-0.44 0.98H5a0.949 0.949 0 0 1-0.71-0.31A0.936 0.936 0 0 1 4 12.98 1.576 1.576 0 0 1 4.44 12ZM24 20a11.991 11.991 0 0 0-1.91 23.83A19.755 19.755 0 0 0 22.92 48H6V16H44v6.1c-0.66-0.06-1.32-0.1-2-0.1a19.861 19.861 0 0 0-8.96 2.14A11.848 11.848 0 0 0 24 20Zm7.28 5.15a19.98 19.98 0 0 0-9.27 16.64A9.9 9.9 0 0 1 14 32 10.016 10.016 0 0 1 24 22 9.888 9.888 0 0 1 31.28 25.15ZM4.09 51.45a1.013 1.013 0 0 1 0.22-1.16A0.928 0.928 0 0 1 5 50H23.68a18.879 18.879 0 0 0 1.03 2H4.99A0.972 0.972 0 0 1 4.09 51.45ZM26.04 54a21.627 21.627 0 0 0 1.7 2H6V54ZM4.62 60l1-2H30.05a20.054 20.054 0 0 0 3.29 2ZM42 60A18 18 0 1 1 60 42 18.014 18.014 0 0 1 42 60Z" fill="#00d1cd" data-fill-palette-color="accent"></path></g></svg></g></svg></g></svg></g><defs></defs></svg><rect width="395.52" height="111.89096037373903" fill="none" stroke="none" visibility="hidden"></rect></g></svg></g></svg>
