<svg xmlns="http://www.w3.org/2000/svg" version="1.1" xmlns:xlink="http://www.w3.org/1999/xlink" xmlns:svgjs="http://svgjs.dev/svgjs" width="128" height="128" viewBox="0 0 128 128"><g transform="matrix(0.8046875,0,0,0.8046875,12.303262598593662,13.294373908539185)"><svg viewBox="0 0 99 98" data-background-color="#444444" preserveAspectRatio="xMidYMid meet" height="126" width="128" xmlns="http://www.w3.org/2000/svg" xmlns:xlink="http://www.w3.org/1999/xlink"><g id="tight-bounds" transform="matrix(1,0,0,1,0.6670792366175959,0.009968692501502119)"><svg viewBox="0 0 95.481 95.43166312424945" height="95.43166312424945" width="95.481"><g><svg viewBox="0 0 95.481 95.43166312424945" height="95.43166312424945" width="95.481"><g><svg viewBox="0 0 95.481 95.43166312424945" height="95.43166312424945" width="95.481"><g id="textblocktransform"><svg viewBox="0 0 95.481 95.43166312424945" height="95.43166312424945" width="95.481" id="textblock"><g><svg viewBox="0 0 95.481 95.43166312424945" height="95.43166312424945" width="95.481"><g><svg viewBox="0 0 95.481 95.43166312424945" height="95.43166312424945" width="95.481"><g><svg xmlns="http://www.w3.org/2000/svg" viewBox="1.9902141903273467 2 60.031029462942485 60.00001027125209" x="0" y="0" height="95.43166312424945" width="95.481" class="icon-icon-0" data-fill-palette-color="accent" id="icon-0"><g fill="#00d1cd" data-fill-palette-color="accent"><path d="M46 42a4 4 0 1 0-4 4A4 4 0 0 0 46 42Zm-4 2a2 2 0 1 1 2-2A2 2 0 0 1 42 44Z" fill="#000000" data-fill-palette-color="accent"></path><path d="M57 41H49a1 1 0 0 0-1 1 6.006 6.006 0 0 1-3 5.193 1 1 0 0 0-0.367 1.367v0h0l4 6.928a1 1 0 0 0 0.608 0.467 1.032 1.032 0 0 0 0.258 0.033 1 1 0 0 0 0.5-0.135A16.077 16.077 0 0 0 58 42 1 1 0 0 0 57 41ZM49.847 53.591l-3.013-5.219A8.024 8.024 0 0 0 49.937 43h6.027A14.087 14.087 0 0 1 49.847 53.591Z" fill="#000000" data-fill-palette-color="accent"></path><path d="M39 47.193A6.006 6.006 0 0 1 36 42a1 1 0 0 0-1-1H27a1 1 0 0 0-1 1 16.077 16.077 0 0 0 8 13.855 1 1 0 0 0 0.5 0.135 1.032 1.032 0 0 0 0.258-0.033 1 1 0 0 0 0.608-0.467l4-6.93A1 1 0 0 0 39 47.193Zm-4.846 6.4A14.087 14.087 0 0 1 28.036 43h6.027a8.03 8.03 0 0 0 3.1 5.373Z" fill="#000000" data-fill-palette-color="accent"></path><path d="M37.634 36.44a1 1 0 0 0 0.609 0.466 0.981 0.981 0 0 0 0.257 0.034A1 1 0 0 0 39 36.8 6.016 6.016 0 0 1 45 36.8a1 1 0 0 0 1.368-0.365l4-6.928a1 1 0 0 0-0.491-1.427l-0.49-0.2A19.023 19.023 0 0 0 42 26a19.023 19.023 0 0 0-7.385 1.884l-0.49 0.2a1 1 0 0 0-0.491 1.427ZM42 28a15.827 15.827 0 0 1 6.06 1.5L45.1 34.626a8.009 8.009 0 0 0-6.206 0l-2.957-5.12A15.827 15.827 0 0 1 42 28Z" fill="#000000" data-fill-palette-color="accent"></path><path d="M46 22.4V16a1.087 1.087 0 0 0 0.64-0.25A3.754 3.754 0 0 0 48 13.07a2.994 2.994 0 0 0-0.87-2.18A2.926 2.926 0 0 0 46 10.18V7.24l1.89-3.79A1 1 0 0 0 47 2H3a1 1 0 0 0-0.89 1.45L4 7.24V10a1.087 1.087 0 0 0-0.64 0.25A3.754 3.754 0 0 0 2 12.93a2.994 2.994 0 0 0 0.87 2.18A2.926 2.926 0 0 0 4 15.82V48.18a2.857 2.857 0 0 0-1.1 0.69 2.989 2.989 0 0 0-0.67 3.32A2.877 2.877 0 0 0 4 53.83v2.93L2.11 60.55A1 1 0 0 0 3 62H42a20 20 0 0 0 4-39.6ZM45.38 4l-1 2H5.62l-1-2ZM44 8v2H6V8ZM4.44 12H45a0.949 0.949 0 0 1 0.71 0.31 0.936 0.936 0 0 1 0.29 0.71 1.576 1.576 0 0 1-0.44 0.98H5a0.949 0.949 0 0 1-0.71-0.31A0.936 0.936 0 0 1 4 12.98 1.576 1.576 0 0 1 4.44 12ZM24 20a11.991 11.991 0 0 0-1.91 23.83A19.755 19.755 0 0 0 22.92 48H6V16H44v6.1c-0.66-0.06-1.32-0.1-2-0.1a19.861 19.861 0 0 0-8.96 2.14A11.848 11.848 0 0 0 24 20Zm7.28 5.15a19.98 19.98 0 0 0-9.27 16.64A9.9 9.9 0 0 1 14 32 10.016 10.016 0 0 1 24 22 9.888 9.888 0 0 1 31.28 25.15ZM4.09 51.45a1.013 1.013 0 0 1 0.22-1.16A0.928 0.928 0 0 1 5 50H23.68a18.879 18.879 0 0 0 1.03 2H4.99A0.972 0.972 0 0 1 4.09 51.45ZM26.04 54a21.627 21.627 0 0 0 1.7 2H6V54ZM4.62 60l1-2H30.05a20.054 20.054 0 0 0 3.29 2ZM42 60A18 18 0 1 1 60 42 18.014 18.014 0 0 1 42 60Z" fill="#000000" data-fill-palette-color="accent"></path></g></svg></g></svg></g></svg></g></svg></g></svg></g></svg></g><defs></defs></svg><rect width="95.481" height="95.43166312424945" fill="none" stroke="none" visibility="hidden"></rect></g></svg></g></svg>
